<svg height="512" viewBox="0 0 512 512" width="512" xmlns="http://www.w3.org/2000/svg"><g><g><path d="m312.29 264.094a243.509 243.509 0 0 1 -24.145-71.465c-2.073-12.077 3.972-23.409 6.207-35.457 1.735-9.348-6.039-15.384-11.976-22.81-1.883-2.355-4.077-4.676-6.963-5.55-6.28-1.905-12.648 4.31-13.483 10.819s2.106 12.843 4.971 18.748c-3.73 6.233-6.172 12.388-9.9 18.621h-2c-3.729-6.233-6.171-12.388-9.9-18.621 2.865-5.905 5.806-12.239 4.971-18.748s-7.2-12.724-13.483-10.819c-2.886.874-5.08 3.195-6.963 5.55-5.937 7.426-13.711 13.462-11.976 22.81 2.235 12.048 8.28 23.38 6.207 35.457a243.509 243.509 0 0 1 -24.145 71.465z" fill="#fad6c6"/><g><path d="m223.064 154.919c3.632.828 7.376-.87 10.394-3.053a32.67 32.67 0 0 0 12.647-20.107c-2.573-2.573-6.057-4-9.518-2.947-2.886.874-5.08 3.195-6.963 5.55-4.354 5.446-9.681 10.149-11.536 15.955a7.134 7.134 0 0 0 4.976 4.602z" fill="#f0f8fc"/><path d="m284.4 169.345a24.967 24.967 0 0 0 6.6.662c1.095-3.738 2.23-7.5 3.038-11.32a12.678 12.678 0 0 1 -7.087 2.078c-4.6 0-9.093-1.9-12.853-4.307a35.325 35.325 0 0 1 -12.258-13.118c.378 5.2 2.743 10.262 5.061 15.038-.024.04-.045.079-.068.119a32.478 32.478 0 0 0 17.567 10.848z" fill="#35495e"/><path d="m274.1 156.458c3.76 2.4 8.254 4.309 12.853 4.307a12.678 12.678 0 0 0 7.087-2.078c.107-.505.216-1.008.31-1.515a13.784 13.784 0 0 0 -.44-6.855 7.134 7.134 0 0 1 -4.976 4.6c-3.632.828-7.376-.87-10.394-3.053a32.67 32.67 0 0 1 -12.64-20.105 13.923 13.923 0 0 0 -3.965 7.872 18.578 18.578 0 0 0 -.09 3.709 35.325 35.325 0 0 0 12.255 13.118z" fill="#dff1fc"/><path d="m278.542 151.866c3.018 2.183 6.762 3.881 10.394 3.053a7.134 7.134 0 0 0 4.976-4.6c-1.855-5.806-7.182-10.509-11.536-15.955-1.883-2.355-4.077-4.676-6.963-5.55-3.461-1.05-6.945.374-9.518 2.947a32.67 32.67 0 0 0 12.647 20.105z" fill="#f0f8fc"/><path d="m312.29 264.09h-112.58a242.506 242.506 0 0 0 17.14-41.96 30.012 30.012 0 0 1 17.63-6.38 30.022 30.022 0 0 1 21.9 8.97 37.93 37.93 0 0 1 7.62-4.93 35.058 35.058 0 0 1 15.9-3.74 36.052 36.052 0 0 1 14.4 3.24 242.434 242.434 0 0 0 17.99 44.8z" fill="#00a8e7"/><path d="m227.6 169.345a32.478 32.478 0 0 0 17.567-10.845c-.023-.04-.044-.079-.068-.119 2.318-4.776 4.683-9.834 5.061-15.038a35.325 35.325 0 0 1 -12.26 13.115c-3.76 2.4-8.254 4.309-12.853 4.307a12.678 12.678 0 0 1 -7.087-2.078c.808 3.823 1.943 7.582 3.038 11.32a24.967 24.967 0 0 0 6.602-.662z" fill="#35495e"/><path d="m237.9 156.458a35.325 35.325 0 0 0 12.26-13.118 18.578 18.578 0 0 0 -.09-3.709 13.923 13.923 0 0 0 -3.965-7.872 32.67 32.67 0 0 1 -12.647 20.107c-3.018 2.183-6.762 3.881-10.394 3.053a7.134 7.134 0 0 1 -4.976-4.6 13.784 13.784 0 0 0 -.44 6.855c.094.507.2 1.01.31 1.515a12.678 12.678 0 0 0 7.087 2.078c4.599 0 9.093-1.905 12.855-4.309z" fill="#dff1fc"/><path d="m264 219.79v28.21a8 8 0 0 1 -16 0v-29.28a29.431 29.431 0 0 1 8.38 6 37.93 37.93 0 0 1 7.62-4.93z" fill="#047699"/></g><path d="m256 224a8 8 0 0 1 -8-8v-200a8 8 0 0 1 16 0v200a8 8 0 0 1 -8 8z" fill="#ffec00"/><path d="m200 184h112v32h-112z" fill="#e22526"/><g><path d="m143.765 334.771a279.287 279.287 0 0 1 -109.311-54.771c-8.933 6.111-12.744 18.8-9.906 29.248a26.981 26.981 0 0 0 23.529 19.317c-7.747.547-13.126 9.672-11.584 17.284s9.066 13.19 16.819 13.653 15.34-3.562 20.391-9.462c21.623 15.571 45.466 26.741 70.927 34.6.019-16.951.8-32.329.822-49.28.772 1.788-2.458-2.377-1.687-.589z" fill="#fad6c6"/><g><path d="m145.125 356.529c.165-6.8.312-13.631.325-20.739-.485-.225-2.283-2.4-1.685-1.019a276.985 276.985 0 0 1 -37.25-12.1 122.042 122.042 0 0 0 -4.487 22.46 316.3 316.3 0 0 0 43.097 11.398z" fill="#f98800"/><path d="m102.028 345.129a122.3 122.3 0 0 0 -.3 22.091 259.061 259.061 0 0 0 42.9 17.421c.011-9.687.27-18.864.5-28.112a316.3 316.3 0 0 1 -43.1-11.4z" fill="#d87100"/><path d="m102.028 345.129a315.736 315.736 0 0 1 -35.591-14.624 33.409 33.409 0 0 1 -30.148 13.943 13.243 13.243 0 0 0 .2 1.4c1.542 7.611 9.066 13.19 16.819 13.653s15.34-3.562 20.391-9.462a225.148 225.148 0 0 0 28.031 17.181 122.3 122.3 0 0 1 .298-22.091z" fill="#eaaa94"/><path d="m145.452 335.361v.429c.139.065.174-.026 0-.429z" fill="#fad6c6"/></g></g><g><path d="m368.235 334.771a279.287 279.287 0 0 0 109.311-54.771c8.933 6.111 12.744 18.8 9.906 29.248a26.981 26.981 0 0 1 -23.529 19.317c7.747.547 13.126 9.672 11.584 17.284s-9.066 13.19-16.819 13.653-15.34-3.562-20.391-9.462c-21.623 15.571-45.466 26.741-70.927 34.6-.019-16.951-.8-32.329-.822-49.28-.772 1.788 2.458-2.377 1.687-.589z" fill="#fad6c6"/><g><path d="m366.875 356.529c-.165-6.8-.312-13.631-.325-20.739.485-.225 2.283-2.4 1.685-1.019a276.985 276.985 0 0 0 37.25-12.1 122.042 122.042 0 0 1 4.487 22.46 316.3 316.3 0 0 1 -43.097 11.398z" fill="#f98800"/><path d="m409.972 345.129a122.3 122.3 0 0 1 .3 22.091 259.061 259.061 0 0 1 -42.9 17.421c-.011-9.687-.27-18.864-.5-28.112a316.3 316.3 0 0 0 43.1-11.4z" fill="#d87100"/><path d="m409.972 345.129a315.736 315.736 0 0 0 35.591-14.624 33.409 33.409 0 0 0 30.148 13.943 13.243 13.243 0 0 1 -.2 1.4c-1.542 7.611-9.066 13.19-16.819 13.653s-15.34-3.562-20.391-9.462a225.148 225.148 0 0 1 -28.031 17.181 122.3 122.3 0 0 0 -.298-22.091z" fill="#eaaa94"/><path d="m366.548 335.361v.429c-.139.065-.174-.026 0-.429z" fill="#fad6c6"/></g></g><path d="m395.458 380.837c-1.508-9.621-9.468-18.621-19.617-19.051-13.841-152.133-226.841-150.136-239.682 0-16.966.888-24.511 22-16.847 35.9 5.544 11.9 18.189 19.432 29.936 25.173v.009c43.68 84.426 166.132 89.048 213.494 0v-.009c16.882-7.679 35.49-21.725 32.716-42.022z" fill="#fad6c6"/><circle cx="184" cy="424" fill="#f78663" r="16"/><circle cx="328" cy="424" fill="#f78663" r="16"/><path d="m381.2 379.994c-8.888 2.447-11.913 12.758-13.3 21.264-.913-5.37-1.713-10.246-2.626-15.616-20.444 100.237-199.456 98.19-218.55 0-.913 5.37-1.713 10.246-2.626 15.616-2.023-22.179-21.19-28.955-27.581-12.844 2.105 16.669 17.938 27.448 32.73 34.444v.009c43.68 84.426 166.132 89.048 213.494 0v-.009c14.733-6.96 30.4-17.509 32.73-34.444-1.157-5.677-8.105-10.106-14.271-8.42z" fill="#eaaa94"/><path d="m195.38 401.783a8 8 0 0 1 -6.68-12.391 24.531 24.531 0 0 1 18.266-10.9c.353-.03.709-.053 1.063-.067-.189-.155-.383-.3-.579-.442a8 8 0 1 1 9.244-13.058 30.515 30.515 0 0 1 12.227 27.665 8 8 0 0 1 -13.775 4.455 8.348 8.348 0 0 0 -13.071 1.124 7.993 7.993 0 0 1 -6.695 3.614z" fill="#333"/><path d="m316.62 401.783a7.993 7.993 0 0 1 -6.695-3.611 8.348 8.348 0 0 0 -13.071-1.124 8 8 0 0 1 -13.775-4.455 30.515 30.515 0 0 1 12.227-27.665 8 8 0 1 1 9.244 13.058c-.2.139-.39.287-.579.442.354.014.709.037 1.063.067a24.531 24.531 0 0 1 18.266 10.9 8 8 0 0 1 -6.68 12.391z" fill="#333"/><ellipse cx="256" cy="424" fill="#f99c78" rx="16" ry="24"/><g><path d="m256 271c48.44 1.6 100.092 23.347 117.724 73.639a120.024 120.024 0 0 0 -235.448 0c17.632-50.292 69.284-72.039 117.724-73.639z" fill="#2b2b2b"/><path d="m373.724 344.639c-17.632-50.292-69.284-72.039-117.724-73.639-48.44 1.6-100.092 23.347-117.724 73.639a120.111 120.111 0 0 0 -2.117 17.147 24.04 24.04 0 0 1 14.117 4.163 40.528 40.528 0 0 1 11.642 12.562c-3.82-8.587-7.341-19.352-7.349-28.751s4.952-19.482 13.877-22.427c5.63-1.857 11.88-.616 17.267 1.86s10.141 6.109 15.127 9.317c16.85 10.84 35.127 13.112 55.16 13.49 20.033-.378 38.31-2.65 55.16-13.49 4.986-3.208 9.74-6.841 15.127-9.317s11.637-3.717 17.267-1.86c8.925 2.945 13.886 13.029 13.877 22.427s-3.529 20.164-7.349 28.751a40.528 40.528 0 0 1 11.642-12.562 24.04 24.04 0 0 1 14.117-4.163 120.111 120.111 0 0 0 -2.117-17.147z" fill="#333"/></g></g><path d="m482.067 273.4a8 8 0 0 0 -9.585.413 272.254 272.254 0 0 1 -96.155 50.487 128.77 128.77 0 0 0 -59.464-68.923 235.584 235.584 0 0 1 -12.738-31.377h7.875a8 8 0 0 0 8-8v-32a8 8 0 0 0 -8-8h-14.376c.44-1.624.923-3.277 1.419-4.964a123.016 123.016 0 0 0 3.172-12.4c2.106-11.322-4.7-19.051-10.168-25.263-1.212-1.376-2.358-2.677-3.433-4.024-2.418-3.008-5.84-6.657-10.887-8.194a16.689 16.689 0 0 0 -13.727 1.974v-107.129a8 8 0 0 0 -16 0v107.129a16.7 16.7 0 0 0 -13.74-1.972c-5.034 1.533-8.456 5.182-10.893 8.213-1.056 1.324-2.2 2.625-3.414 4-5.469 6.212-12.274 13.941-10.17 25.252a123.015 123.015 0 0 0 3.174 12.413c.5 1.687.979 3.34 1.419 4.964h-14.376a8 8 0 0 0 -8 8v32a8 8 0 0 0 8 8h7.875a235.584 235.584 0 0 1 -12.738 31.381 128.768 128.768 0 0 0 -59.464 68.92 272.254 272.254 0 0 1 -96.155-50.49 8 8 0 0 0 -9.585-.413c-11.445 7.83-16.954 23.791-13.1 37.953a34.85 34.85 0 0 0 14.72 19.731 23.5 23.5 0 0 0 -2.9 16.356c2.209 10.917 12.381 19.348 24.176 20.048a32.22 32.22 0 0 0 21.648-7.154 240.411 240.411 0 0 0 34.18 19.169c-.008.046-.019.093-.026.139-1.629 10.714 2.164 22.541 10.147 31.642 6.074 6.916 16.522 13.7 24.693 17.71a127.99 127.99 0 0 0 225.059 0c8.159-4 18.616-10.792 24.694-17.714 7.981-9.1 11.774-20.925 10.147-31.622-.008-.052-.021-.1-.029-.156a240.269 240.269 0 0 0 34.185-19.167 32.232 32.232 0 0 0 21.637 7.155c11.806-.7 21.978-9.132 24.187-20.049a23.5 23.5 0 0 0 -2.9-16.356 34.85 34.85 0 0 0 14.72-19.731c3.85-14.163-1.659-30.124-13.104-37.951zm-186.875-27.25a128.845 128.845 0 0 0 -31.192-5.893v-16.257h23.352q3.389 11.241 7.84 22.15zm-21.092-91.25c-2.715-5.609-4.75-10.22-4.237-14.253a5.964 5.964 0 0 1 2.428-3.849 1.583 1.583 0 0 1 .787-.33c.439.134 1.326.747 3.047 2.887 1.3 1.627 2.627 3.135 3.911 4.594 4.957 5.63 7.065 8.444 6.444 11.773a108.93 108.93 0 0 1 -2.791 10.809c-.906 3.085-1.824 6.235-2.552 9.474h-14.429c.839-1.606 1.628-3.188 2.4-4.744 1.516-3.043 2.948-5.917 4.653-8.766a8 8 0 0 0 .339-7.595zm-18.1-1.49c.585 1.628 1.236 3.183 1.9 4.645-.664 1.235-1.287 2.452-1.9 3.659-.609-1.207-1.232-2.424-1.9-3.659.664-1.467 1.315-3.022 1.9-4.65zm-27.691 13.121a108.913 108.913 0 0 1 -2.793-10.82c-.619-3.318 1.489-6.132 6.446-11.762 1.284-1.459 2.613-2.967 3.892-4.571 1.74-2.163 2.627-2.776 3.052-2.906a1.526 1.526 0 0 1 .8.326 5.964 5.964 0 0 1 2.428 3.849c.513 4.033-1.522 8.644-4.237 14.253a8 8 0 0 0 .338 7.595c1.705 2.849 3.137 5.723 4.653 8.766.775 1.556 1.564 3.138 2.4 4.744h-14.427c-.728-3.244-1.646-6.394-2.552-9.479zm-20.309 25.469h96v16h-96zm40 32v16.257a128.827 128.827 0 0 0 -31.192 5.893q4.43-10.893 7.84-22.15zm-43.158 44.343a112.191 112.191 0 0 1 102.319 0 112.574 112.574 0 0 1 56.287 67.957 110.978 110.978 0 0 1 3.771 18.5c-.707.189-1.414.4-2.12.638a51.587 51.587 0 0 0 .331-5.67c.015-13.912-7.95-26.263-19.382-30.039-8.829-2.9-17.432-.41-23.1 2.192a86.587 86.587 0 0 0 -12.267 7.3c-1.277.861-2.553 1.723-3.847 2.555-14.921 9.604-31.119 11.838-50.834 12.224-19.715-.384-35.913-2.618-50.832-12.216-1.294-.832-2.57-1.694-3.847-2.555a86.615 86.615 0 0 0 -12.273-7.308c-5.664-2.6-14.269-5.088-23.107-2.185-11.421 3.772-19.386 16.123-19.371 30.034a51.738 51.738 0 0 0 .332 5.679c-.111-.038-.224-.07-.336-.107q-.319-.106-.641-.2c-.275-.085-.549-.167-.823-.244-.11-.031-.22-.068-.33-.1a111.06 111.06 0 0 1 3.782-18.5 112.568 112.568 0 0 1 56.288-67.955zm-137.22 76.5c-3.771 4.407-9.069 6.965-13.839 6.676-4.456-.264-8.7-3.517-9.452-7.251a7.816 7.816 0 0 1 1.547-5.874 4.38 4.38 0 0 1 2.758-1.839 8 8 0 0 0 0-15.961 19.026 19.026 0 0 1 -16.366-13.444 20.768 20.768 0 0 1 2.741-16.472 288.622 288.622 0 0 0 96.152 48.971 127.755 127.755 0 0 0 -2.508 15.483 29.384 29.384 0 0 0 -13.551 9.724 222.108 222.108 0 0 1 -36.731-21.309 8 8 0 0 0 -10.751 1.291zm313.578 55.878c-4.192 4.776-13.732 11.3-21.7 14.841-.765.338-1.55.66-2.335.958a8 8 0 0 0 -5.021 8.942 112.008 112.008 0 0 1 -192.282 0 8 8 0 0 0 -5.021-8.941c-.785-.3-1.57-.62-2.317-.95-7.987-3.551-17.527-10.073-21.717-14.846-4.908-5.594-7.283-12.577-6.353-18.7a14.957 14.957 0 0 1 1.123-3.8c1.93-4.391 5.709-7.652 9.671-8.316a9.65 9.65 0 0 1 1.317-.133 14.176 14.176 0 0 1 5.629.975 18.368 18.368 0 0 1 3.691 1.877c3.325 2.189 6.355 5.5 9.264 10.134a8 8 0 0 0 14.083-7.507c-4.287-9.64-6.652-18.7-6.659-25.509-.007-5.84 2.931-13.021 8.378-14.82 4.1-1.349 8.918.38 11.418 1.528a73.477 73.477 0 0 1 10.007 6.033c1.374.926 2.747 1.852 4.139 2.747 19.193 12.347 39.861 14.391 59.337 14.761h.16s.094.006.142 0c19.476-.37 40.144-2.414 59.337-14.761 1.392-.895 2.765-1.821 4.139-2.747a73.568 73.568 0 0 1 10-6.031c2.5-1.149 7.322-2.876 11.413-1.534 5.458 1.8 8.4 8.984 8.389 14.825-.007 6.81-2.372 15.868-6.659 25.508a8 8 0 0 0 14.083 7.507c2.909-4.63 5.939-7.945 9.257-10.129a18.369 18.369 0 0 1 3.7-1.882c.107-.039.213-.081.318-.125a14.243 14.243 0 0 1 5.4-.846 9.54 9.54 0 0 1 1.271.135c3.92.658 7.7 3.919 9.633 8.318a14.965 14.965 0 0 1 1.121 3.8c.923 6.114-1.456 13.097-6.356 18.688zm98.53-93.571a19.026 19.026 0 0 1 -16.365 13.439 8 8 0 0 0 0 15.961 4.38 4.38 0 0 1 2.758 1.839 7.816 7.816 0 0 1 1.547 5.874c-.756 3.734-5 6.987-9.463 7.252-4.776.284-10.058-2.27-13.828-6.677a8 8 0 0 0 -10.751-1.291 222.149 222.149 0 0 1 -36.728 21.309 29.364 29.364 0 0 0 -13.552-9.73 127.852 127.852 0 0 0 -2.507-15.477 288.613 288.613 0 0 0 96.152-48.971 20.768 20.768 0 0 1 2.737 16.472z"/></g></svg>