<svg height="512" viewBox="0 0 512 512" width="512" xmlns="http://www.w3.org/2000/svg"><g id="filled_outline" data-name="filled outline"><g fill="#d18d28"><path d="m16 408h16v80h-16z"/><path d="m48 416h16v80h-16z"/><path d="m80 448h16v48h-16z"/><path d="m112 456h16v40h-16z"/><path d="m144 456h16v40h-16z"/><path d="m344 456h16v32h-16z"/><path d="m376 456h16v32h-16z"/></g><path d="m427 494.247-19.731-15.784a66.241 66.241 0 0 0 -41.227-14.463h-259.209a51.135 51.135 0 0 1 -45.988-28.422 35.225 35.225 0 0 0 -31.678-19.578h-13.167v-16h13.167a51.135 51.135 0 0 1 45.988 28.422 35.225 35.225 0 0 0 31.678 19.578h259.209a82.3 82.3 0 0 1 51.226 17.969l19.732 15.784z" fill="#cdcdcd"/><path d="m328 496h-144a8 8 0 0 1 -7.663-10.3l72-240a8 8 0 0 1 15.326 0l72 240a8 8 0 0 1 -7.663 10.3zm-133.248-16h122.5l-61.252-204.159z" fill="#3775a4"/><path d="m48 240h408v16h-408z" fill="#3775a4"/><path d="m248 80h16v168h-16z" fill="#3775a4"/><path d="m380.262 383.577-249.919-249.92 11.314-11.314 245.657 245.657z" fill="#3775a4"/><path d="m134.527 380.787-15.098-7.531 250.914-250.913 11.314 11.314z" fill="#3775a4"/><path d="m256 448c-110.28 0-200-89.72-200-200s89.72-200 200-200 200 89.72 200 200-89.72 200-200 200zm0-384c-101.458 0-184 82.542-184 184s82.542 184 184 184 184-82.542 184-184-82.542-184-184-184z" fill="#4595c9"/><path d="m256 368a120 120 0 1 1 120-120 120.136 120.136 0 0 1 -120 120zm0-224a104 104 0 1 0 104 104 104.118 104.118 0 0 0 -104-104z" fill="#4595c9"/><rect fill="#fd9226" height="64" rx="24" width="48" x="96" y="80"/><path d="m144 112h-48v8a24 24 0 0 0 24 24 24 24 0 0 0 24-24z" fill="#e08122"/><circle cx="256" cy="248" fill="#4595c9" r="32"/><path d="m224 440h64v48h-64z" fill="#fbb540"/><path d="m256 400-32 40h64z" fill="#c7463b"/><path d="m248 464h16v24h-16z" fill="#da922a"/><rect fill="#aac16b" height="56" rx="24" width="48" x="440" y="400"/><path d="m456 428h16v60h-16z" fill="#bd9070"/><rect fill="#ffb1b5" height="64" rx="24" width="48" x="232" y="24"/><path d="m280 56h-48v8a24 24 0 0 0 24 24 24 24 0 0 0 24-24z" fill="#de9a9e"/><rect fill="#dc4d41" height="64" rx="24" width="48" x="368" y="80"/><path d="m416 112h-48v8a24 24 0 0 0 24 24 24 24 0 0 0 24-24z" fill="#c7463b"/><rect fill="#6cbae5" height="64" rx="24" width="48" x="40" y="216"/><path d="m88 248h-48v8a24 24 0 0 0 24 24 24 24 0 0 0 24-24z" fill="#428dc5"/><rect fill="#fd9226" height="64" rx="24" width="48" x="424" y="216"/><path d="m472 248h-48v8a24 24 0 0 0 24 24 24 24 0 0 0 24-24z" fill="#e08122"/><rect fill="#8dc79d" height="64" rx="24" width="48" x="368" y="352"/><path d="m416 384h-48v8a24 24 0 0 0 24 24 24 24 0 0 0 24-24z" fill="#6b9777"/><rect fill="#ffb1b5" height="64" rx="24" width="48" x="96" y="351.577"/><path d="m144 383.577h-48v8a24 24 0 0 0 24 24 24 24 0 0 0 24-24z" fill="#de9a9e"/><path d="m16 480h480v16h-480z" fill="#55785f"/><path d="m224 440h64v8h-64z" fill="#da922a"/><path d="m496 496v-16h-24v-17.013a32.057 32.057 0 0 0 24-30.987v-8a32 32 0 0 0 -64 0v8a32.057 32.057 0 0 0 24 30.987v17.013h-21.194l-17.538-14.031a82.3 82.3 0 0 0 -51.226-17.969h-41.689l-3.253-10.842a198.377 198.377 0 0 0 47.218-23.658 31.986 31.986 0 0 0 55.682-21.5v-16a31.778 31.778 0 0 0 -3.415-14.356 200.441 200.441 0 0 0 31.453-73.908 32.041 32.041 0 0 0 27.962-31.736v-16a32.041 32.041 0 0 0 -27.962-31.736 200.441 200.441 0 0 0 -31.453-73.908 31.778 31.778 0 0 0 3.415-14.356v-16a31.986 31.986 0 0 0 -55.7-21.482 199.544 199.544 0 0 0 -80.3-31.955v-2.563a32 32 0 0 0 -64 0v2.563a199.544 199.544 0 0 0 -80.3 31.955 31.986 31.986 0 0 0 -55.7 21.482v16a31.778 31.778 0 0 0 3.415 14.356 200.441 200.441 0 0 0 -31.453 73.908 32.041 32.041 0 0 0 -27.962 31.736v16a32.041 32.041 0 0 0 27.962 31.736 200.441 200.441 0 0 0 31.453 73.908 31.778 31.778 0 0 0 -3.415 14.356v16a31.986 31.986 0 0 0 55.682 21.5 198.377 198.377 0 0 0 47.218 23.658l-3.253 10.842h-80.814a35.225 35.225 0 0 1 -31.678-19.578 51.135 51.135 0 0 0 -45.988-28.422h-13.167v96zm-48-64v-8a16 16 0 0 1 32 0v8a16 16 0 0 1 -8 13.835v-17.835h-16v17.835a16 16 0 0 1 -8-13.835zm-56 37.349a65.893 65.893 0 0 1 15.272 9.114l1.922 1.537h-17.194zm-32-5.349h6.042a65.55 65.55 0 0 1 9.958.777v15.223h-16zm-16 0v16h-10.048l-4.8-16zm-128 16h-21.249l4.8-16h16.449zm0-32h-11.649l1.879-6.263q4.847 1.239 9.77 2.234zm64 32h-16v-16h-16v16h-16v-32h48zm-39.355-48 15.355-19.193 15.355 19.193zm21.6-37a8 8 0 0 0 -12.494 0l-27.161 33.951q-5.925-1.088-11.759-2.56l18.42-61.4a120.421 120.421 0 0 0 53.494 0l18.42 61.4q-5.826 1.468-11.759 2.56zm12.678-111.77c1.07-.577 2.109-1.205 3.119-1.874l45.586 45.586a104.148 104.148 0 0 1 -30.169 18.076zm3.213 66.391a104.174 104.174 0 0 1 -44.272 0l18.536-61.791c1.186.107 2.385.17 3.6.17s2.413-.063 3.6-.17zm11.22-79.579a39.764 39.764 0 0 0 5.844-14.042h64.5a103.555 103.555 0 0 1 -24.753 59.628zm5.844-30.042a39.764 39.764 0 0 0 -5.839-14.042l45.586-45.586a103.555 103.555 0 0 1 24.753 59.628zm-17.153-25.356a39.764 39.764 0 0 0 -14.047-5.839v-64.5a103.555 103.555 0 0 1 59.628 24.753zm1.953 33.356a24 24 0 1 1 -24-24 24.028 24.028 0 0 1 24 24zm-32-39.195a39.764 39.764 0 0 0 -14.042 5.839l-45.586-45.586a103.555 103.555 0 0 1 59.628-24.753zm-25.356 17.153a39.764 39.764 0 0 0 -5.839 14.042h-64.5a103.555 103.555 0 0 1 24.753-59.628zm-5.839 30.042a39.764 39.764 0 0 0 5.839 14.042l-45.586 45.586a103.555 103.555 0 0 1 -24.753-59.628zm17.153 25.356c1.01.669 2.049 1.3 3.119 1.874l-18.536 61.788a104.148 104.148 0 0 1 -30.169-18.076zm71.812 160.381 1.879 6.263h-11.649v-4.029q4.917-.999 9.77-2.234zm-9.77 38.263v-16h16.449l4.8 16zm64.831-80.781a182.49 182.49 0 0 1 -44.331 22.607l-18.432-61.443a120.156 120.156 0 0 0 36.9-22.1l26.913 26.917a31.851 31.851 0 0 0 -1.881 10.8v16a31.993 31.993 0 0 0 .831 7.219zm31.169 8.781a16.019 16.019 0 0 1 -16-16h32a16.019 16.019 0 0 1 -16 16zm-16-32a16 16 0 0 1 32 0zm33.6-26.7a31.9 31.9 0 0 0 -38.5 2.5l-24.828-24.829a119.5 119.5 0 0 0 29.455-70.971h40.273a32.046 32.046 0 0 0 20.115 29.7 184.4 184.4 0 0 1 -26.515 63.6zm38.4-77.3a16.019 16.019 0 0 1 -16-16h32a16.019 16.019 0 0 1 -16 16zm0-48a16.019 16.019 0 0 1 16 16h-32a16.019 16.019 0 0 1 16-16zm-56-136a16.019 16.019 0 0 1 16 16h-32a16.019 16.019 0 0 1 16-16zm16 32a16 16 0 0 1 -32 0zm-36.893 24.207a31.9 31.9 0 0 0 38.5 2.5 184.4 184.4 0 0 1 26.508 63.593 32.046 32.046 0 0 0 -20.115 29.7h-40.273a119.5 119.5 0 0 0 -29.448-70.964zm-83.235-77.428a183.554 183.554 0 0 1 72.961 30 31.926 31.926 0 0 0 -.833 7.221v16a31.851 31.851 0 0 0 1.881 10.8l-26.917 26.917a119.5 119.5 0 0 0 -70.964-29.444v-33.286a32.072 32.072 0 0 0 23.872-28.208zm-31.872-34.779a16.019 16.019 0 0 1 16 16h-32a16.019 16.019 0 0 1 16-16zm16 32a16 16 0 0 1 -32 0zm-120.833 32.775a183.554 183.554 0 0 1 72.961-30 32.072 32.072 0 0 0 23.872 28.212v33.286a119.5 119.5 0 0 0 -70.964 29.448l-26.917-26.921a31.851 31.851 0 0 0 1.881-10.8v-16a31.926 31.926 0 0 0 -.833-7.225zm-31.167-8.775a16.019 16.019 0 0 1 16 16h-32a16.019 16.019 0 0 1 16-16zm16 32a16 16 0 0 1 -32 0zm-33.6 26.7a31.9 31.9 0 0 0 38.5-2.5l24.828 24.829a119.5 119.5 0 0 0 -29.455 70.971h-40.273a32.046 32.046 0 0 0 -20.115-29.7 184.4 184.4 0 0 1 26.515-63.6zm-38.4 77.3a16.019 16.019 0 0 1 16 16h-32a16.019 16.019 0 0 1 16-16zm0 48a16.019 16.019 0 0 1 -16-16h32a16.019 16.019 0 0 1 -16 16zm56 136a16.019 16.019 0 0 1 -16-16h32a16.019 16.019 0 0 1 -16 16zm-16-32a16 16 0 0 1 32 0zm36.893-24.207a31.9 31.9 0 0 0 -38.5-2.5 184.4 184.4 0 0 1 -26.508-63.593 32.046 32.046 0 0 0 20.115-29.7h40.273a119.5 119.5 0 0 0 29.448 70.964zm10.276 47.426a31.993 31.993 0 0 0 .831-7.219v-16a31.851 31.851 0 0 0 -1.881-10.8l26.917-26.917a120.156 120.156 0 0 0 36.9 22.1l-18.436 61.443a182.49 182.49 0 0 1 -44.331-22.607zm8.831 64.781h22.847l-4.8 16h-18.047zm-32 0h16v16h-16zm-32-1.135a52.011 52.011 0 0 0 10.833 1.135h5.167v16h-16zm-32-21.837a51.129 51.129 0 0 0 16 15.472v23.5h-16zm-32-24.907a35.234 35.234 0 0 1 16 5.27v58.609h-16z"/></g></svg>