<svg height="512" viewBox="0 0 64 64" width="512" xmlns="http://www.w3.org/2000/svg"><g id="Filled_outline" data-name="Filled outline"><path d="m57 59-12 2h-26l-12-2v-56h50z" fill="#20749e"/><path d="m53 41h-15l-6-6-6 6h-15v-22h42z" fill="#87cee9"/><path d="m19 45h26v16h-26z" fill="#113e54"/><g fill="#3596bc"><path d="m24 48h16v2h-16z"/><path d="m24 52h16v2h-16z"/><path d="m24 56h16v2h-16z"/><path d="m19 61-12-2v-16l12 2z"/><path d="m45 61 12-2v-16l-12 2z"/></g><path d="m7 15h50v4h-50z" fill="#113e54"/><path d="m33 3v8a2 2 0 0 0 4 0 2 2 0 0 1 4 0v6a2 2 0 0 0 4 0v-8a2 2 0 0 1 4 0v14a2 2 0 0 0 4 0v-20z" fill="#f9bb4b"/><circle cx="19" cy="12" fill="#f9bb4b" r="3"/><path d="m24 7h2v2h-2z" fill="#f9bb4b"/><path d="m28 9h2v2h-2z" fill="#f9bb4b"/><path d="m15.757 30h8.485v2h-8.485z" fill="#f4f4e6" transform="matrix(.707 -.707 .707 .707 -16.062 23.222)"/><path d="m22.964 28.5h7.071v2h-7.071z" fill="#f4f4e6" transform="matrix(.707 -.707 .707 .707 -13.098 27.379)"/><path d="m36.964 28.5h7.071v2h-7.071z" fill="#f4f4e6" transform="matrix(.707 -.707 .707 .707 -8.997 37.278)"/><path d="m39.172 32h5.657v2h-5.657z" fill="#f4f4e6" transform="matrix(.707 -.707 .707 .707 -11.033 39.364)"/><path d="m57 2h-50a1 1 0 0 0 -1 1v56a1 1 0 0 0 .835.986l12 2a1.021 1.021 0 0 0 .165.014h26a1.021 1.021 0 0 0 .165-.014l12-2a1 1 0 0 0 .835-.986v-56a1 1 0 0 0 -1-1zm-12.083 42h-25.834l-11.083-1.847v-22.153h2v21a1 1 0 0 0 1 1h15a1 1 0 0 0 .707-.293l5.293-5.293 5.293 5.293a1 1 0 0 0 .707.293h15a1 1 0 0 0 1-1v-21h2v22.153zm-36.917-28h32v1a2.966 2.966 0 0 0 .184 1h-32.184zm9-4a2 2 0 1 1 2 2 2 2 0 0 1 -2-2zm31 2h-2v-5a1 1 0 0 1 2 0zm-2 3v-1h2v2h-2.184a2.966 2.966 0 0 0 .184-1zm2 3v3a3 3 0 0 0 3 3 2.966 2.966 0 0 0 1-.184v14.184h-13.586l-5.707-5.707a1 1 0 0 0 -1.414 0l-5.707 5.707h-13.586v-20zm8-2h-2v-2h2zm0-4h-2v-10h2zm-4-10v19a1 1 0 0 1 -2 0v-14a3 3 0 0 0 -6 0v8a1 1 0 0 1 -2 0v-6a3 3 0 0 0 -6 0 1 1 0 0 1 -2 0v-7zm-20 0v7a3 3 0 0 0 6 0 1 1 0 0 1 2 0v3h-17.556a3.959 3.959 0 0 0 .556-2 4 4 0 0 0 -8 0 3.959 3.959 0 0 0 .556 2h-7.556v-10zm-24 40.18 10 1.667v13.973l-10-1.667zm12 15.82v-14h24v14zm26-.18v-13.973l10-1.667v13.973z"/><path d="m24 48h16v2h-16z"/><path d="m24 52h16v2h-16z"/><path d="m24 56h16v2h-16z"/><path d="m24 7h2v2h-2z"/><path d="m28 9h2v2h-2z"/><path d="m15.757 30h8.485v2h-8.485z" transform="matrix(.707 -.707 .707 .707 -16.062 23.222)"/><path d="m22.964 28.5h7.071v2h-7.071z" transform="matrix(.707 -.707 .707 .707 -13.098 27.379)"/><path d="m36.964 28.5h7.071v2h-7.071z" transform="matrix(.707 -.707 .707 .707 -8.997 37.278)"/><path d="m39.172 32h5.657v2h-5.657z" transform="matrix(.707 -.707 .707 .707 -11.033 39.364)"/></g></svg>